<svg width="29" height="27" viewBox="0 0 29 27" fill="none" xmlns="http://www.w3.org/2000/svg">
<path opacity="0.4" d="M22.6319 6.78784C26.1005 6.78784 28.9238 9.70282 28.9238 13.2855L28.9238 20.4071C28.9238 23.9811 26.1076 26.8888 22.6461 26.8888L6.91497 26.8888C3.44495 26.8888 0.620255 23.9753 0.620255 20.3925L0.620255 13.2709C0.620255 9.69698 3.43788 6.78784 6.90082 6.78784L8.23109 6.78784L22.6319 6.78784Z" fill="white"/>
<path d="M15.5449 19.1578L19.6617 14.9577C20.0862 14.5236 20.0862 13.825 19.6588 13.3924C19.2315 12.9611 18.5423 12.9626 18.1177 13.3952L15.8633 15.6951L15.8633 1.10681C15.8633 0.495907 15.3751 0 14.7722 0C14.1708 0 13.684 0.495907 13.684 1.10681L13.684 15.6951L11.4282 13.3952C11.0036 12.9626 10.3144 12.9611 9.88704 13.3924C9.67334 13.6094 9.56579 13.8926 9.56579 14.1772C9.56579 14.4589 9.67334 14.7421 9.8842 14.9577L14.001 19.1578C14.2062 19.3663 14.4835 19.4841 14.7722 19.4841C15.0623 19.4841 15.3397 19.3663 15.5449 19.1578" fill="white"/>
</svg>
