<svg width="54" height="45" viewBox="0 0 54 45" fill="none" xmlns="http://www.w3.org/2000/svg">
<path d="M40.4787 9.34523C38.1373 6.50916 34.9777 4.46476 31.4313 3.49107C27.8848 2.51738 24.1243 2.66185 20.663 3.90476C17.2016 5.14768 14.2082 7.42847 12.0913 10.4358C9.97439 13.4432 8.83711 17.0305 8.83472 20.7082V25.5874" stroke="white" stroke-opacity="0.4" stroke-width="5" stroke-linecap="round" stroke-linejoin="round"/>
<path d="M14.5144 35.9472C16.9698 38.549 20.1496 40.3537 23.6423 41.1278C27.135 41.9018 30.7796 41.6095 34.1043 40.2888C37.429 38.968 40.2806 36.6796 42.29 33.7197C44.2993 30.7599 45.3739 27.2651 45.3745 23.6876V20.4392" stroke="white" stroke-opacity="0.4" stroke-width="5" stroke-linecap="round" stroke-linejoin="round"/>
<path d="M16.9235 17.5961C16.9133 17.7918 16.8487 17.9818 16.7336 18.1467L9.16421 28.8699C8.95541 29.1644 8.6117 29.3327 8.25118 29.3138C7.89066 29.2949 7.56644 29.0916 7.38957 28.7768L0.982559 17.3212C0.796859 16.9878 0.805667 16.5791 1.00902 16.2549C1.21104 15.9292 1.57262 15.7407 1.9541 15.7607L15.9305 16.4932C16.3119 16.5132 16.6518 16.7384 16.8187 17.0834C16.8985 17.2459 16.9326 17.4229 16.9235 17.5961" fill="white"/>
<path d="M36.8721 27.3593C36.8789 27.1661 36.9394 26.9776 37.0501 26.8129L44.3334 16.1029C44.5344 15.8088 44.8706 15.6367 45.2266 15.6492C45.5826 15.6616 45.906 15.8567 46.0859 16.1641L52.6044 27.356C52.7934 27.6818 52.7917 28.0852 52.5967 28.4086C52.403 28.7334 52.0495 28.9255 51.6728 28.9123L37.8709 28.4304C37.4942 28.4172 37.155 28.2009 36.9844 27.8634C36.9029 27.7044 36.8662 27.5304 36.8721 27.3593" fill="white"/>
</svg>
