<svg width="44" height="43" viewBox="0 0 44 43" fill="none" xmlns="http://www.w3.org/2000/svg">
<path opacity="0.4" d="M32.0863 0H12.2788C5.06061 0 0.970947 4.08967 0.970947 11.3078V31.0965C0.970947 38.3147 5.06061 42.4044 12.2788 42.4044H32.0863C39.3045 42.4044 43.3753 38.3147 43.3753 31.0965V11.3078C43.3753 4.08967 39.3045 0 32.0863 0" fill="white"/>
<path d="M12.3535 15.6238C11.3924 15.6238 10.6008 16.4153 10.6008 17.3953V31.9636C10.6008 32.9248 11.3924 33.7163 12.3535 33.7163C13.3336 33.7163 14.1251 32.9248 14.1251 31.9636V17.3953C14.1251 16.4153 13.3336 15.6238 12.3535 15.6238" fill="white"/>
<path d="M22.2481 8.66943C21.2869 8.66943 20.4954 9.46098 20.4954 10.441V31.9636C20.4954 32.9247 21.2869 33.7163 22.2481 33.7163C23.2281 33.7163 24.0196 32.9247 24.0196 31.9636V10.441C24.0196 9.46098 23.2281 8.66943 22.2481 8.66943" fill="white"/>
<path d="M32.0106 23.3132C31.0306 23.3132 30.239 24.1048 30.239 25.0848V31.9637C30.239 32.9249 31.0306 33.7164 31.9917 33.7164C32.9717 33.7164 33.7633 32.9249 33.7633 31.9637V25.0848C33.7633 24.1048 32.9717 23.3132 32.0106 23.3132" fill="white"/>
</svg>
