<svg width="95" height="95" viewBox="0 0 95 95" fill="none" xmlns="http://www.w3.org/2000/svg">
<g clip-path="url(#clip0)">
<path fill-rule="evenodd" clip-rule="evenodd" d="M27.4018 31.8907H67.5982C78.796 31.8907 87.875 40.7695 87.875 51.7204V75.1704C87.875 86.1213 78.796 95 67.5982 95H27.4018C16.2039 95 7.125 86.1213 7.125 75.1704V51.7204C7.125 40.7695 16.2039 31.8907 27.4018 31.8907ZM47.4768 72.815C49.8419 72.815 51.7243 70.9741 51.7243 68.6612V58.1824C51.7243 55.9166 49.8419 54.0758 47.4768 54.0758C45.16 54.0758 43.2776 55.9166 43.2776 58.1824V68.6612C43.2776 70.9741 45.16 72.815 47.4768 72.815Z" fill="white"/>
<path opacity="0.4" d="M73.7343 25.6308V32.6167C72.045 32.1447 70.2591 31.9086 68.425 31.9086H65.2877V25.6308C65.2877 16.0487 57.3237 8.26038 47.5256 8.26038C37.7275 8.26038 29.7635 16.0015 29.7152 25.5364V31.9086H26.6261C24.7437 31.9086 22.9579 32.1447 21.2686 32.6639V25.6308C21.3168 11.4701 33.0456 0 47.429 0C62.0055 0 73.7343 11.4701 73.7343 25.6308" fill="white"/>
</g>
<defs>
<clipPath id="clip0">
<rect width="95" height="95" fill="white"/>
</clipPath>
</defs>
</svg>
