<svg width="47" height="42" viewBox="0 0 47 42" fill="none" xmlns="http://www.w3.org/2000/svg">
<path fill-rule="evenodd" clip-rule="evenodd" d="M46.099 12.8889H36.3872C31.8677 12.8968 28.2064 16.4666 28.1982 20.8732C28.1921 25.2898 31.8575 28.8755 36.3872 28.8815H46.1072V29.5831C46.1072 37.2872 41.4368 41.8429 33.5332 41.8429H12.815C4.90941 41.8429 0.239014 37.2872 0.239014 29.5831V12.8034C0.239014 5.09931 4.90941 0.561523 12.815 0.561523H33.525C41.4286 0.561523 46.099 5.09931 46.099 12.8034V12.8889ZM11.1088 12.8709H24.0436H24.0518H24.0681C25.0364 12.8669 25.8192 12.0977 25.8151 11.1516C25.8111 10.2075 25.0201 9.4442 24.0518 9.44817H11.1088C10.1466 9.45215 9.3658 10.2134 9.36172 11.1536C9.35764 12.0977 10.1405 12.8669 11.1088 12.8709Z" fill="white"/>
<path opacity="0.4" d="M32.4325 21.8825C32.9121 24.064 34.8247 25.5988 37.0082 25.5589H44.4616C45.3702 25.5589 46.1071 24.8064 46.1071 23.8764V18.0705C46.1052 17.1424 45.3702 16.388 44.4616 16.386H36.8328C34.3489 16.394 32.3428 18.4557 32.3467 20.9964C32.3467 21.2938 32.3759 21.5911 32.4325 21.8825" fill="white"/>
<circle cx="36.9333" cy="20.9729" r="2.29341" fill="white"/>
</svg>
