<svg width="43" height="42" viewBox="0 0 43 42" fill="none" xmlns="http://www.w3.org/2000/svg">
<path opacity="0.4" d="M2.454 9.14181L26.8178 9.14181C27.9449 9.14181 28.8597 10.0566 28.8597 11.1837C28.8597 12.3108 27.9449 13.2256 26.8178 13.2256L2.454 13.2256C1.32688 13.2256 0.412109 12.3108 0.412109 11.1837C0.412109 10.0566 1.32688 9.14181 2.454 9.14181" fill="white"/>
<mask id="mask0" mask-type="alpha" maskUnits="userSpaceOnUse" x="24" y="0" width="19" height="23">
<path fill-rule="evenodd" clip-rule="evenodd" d="M24.7764 22.4109V0.422025H42.3461V22.4109H24.7764Z" fill="white"/>
</mask>
<g mask="url(#mask0)">
<path d="M26.1554 0.609724C26.4128 0.609724 26.6665 0.68143 26.8908 0.821168L41.4824 10.0163C41.8832 10.27 42.1278 10.7095 42.1278 11.1838C42.1278 11.6582 41.8832 12.0977 41.4824 12.3514L26.8908 21.5465C26.4661 21.8131 25.9292 21.8297 25.4898 21.5851C25.0485 21.3424 24.7764 20.8809 24.7764 20.379V1.98872C24.7764 1.48676 25.0485 1.02526 25.4898 0.782557C25.6975 0.666721 25.9274 0.609724 26.1554 0.609724" fill="white"/>
</g>
<path opacity="0.4" d="M39.8922 33.2627H15.5284C14.4013 33.2627 13.4865 32.348 13.4865 31.2208C13.4865 30.0937 14.4013 29.179 15.5284 29.179H39.8922C41.0193 29.179 41.9341 30.0937 41.9341 31.2208C41.9341 32.348 41.0193 33.2627 39.8922 33.2627" fill="white"/>
<mask id="mask1" mask-type="alpha" maskUnits="userSpaceOnUse" x="0" y="19" width="18" height="23">
<path fill-rule="evenodd" clip-rule="evenodd" d="M17.5698 19.9937V41.9825H7.79199e-05V19.9937H17.5698Z" fill="white"/>
</mask>
<g mask="url(#mask1)">
<path d="M16.1908 41.7948C15.9334 41.7948 15.6797 41.7231 15.4554 41.5834L0.863787 32.3882C0.462959 32.1345 0.218416 31.6951 0.218416 31.2207C0.218416 30.7463 0.462959 30.3069 0.863787 30.0532L15.4554 20.858C15.8801 20.5914 16.417 20.5749 16.8564 20.8194C17.2977 21.0621 17.5698 21.5236 17.5698 22.0256V40.4158C17.5698 40.9178 17.2977 41.3793 16.8564 41.622C16.6487 41.7378 16.4188 41.7948 16.1908 41.7948" fill="white"/>
</g>
</svg>
