<svg width="23" height="20" viewBox="0 0 23 20" fill="none" xmlns="http://www.w3.org/2000/svg">
<path opacity="0.4" d="M22.1669 14.3426C22.1669 17.4349 19.6842 19.9397 16.5919 19.9508H16.5808H5.59713C2.51594 19.9508 0 17.457 0 14.3647V14.3537C0 14.3537 0.00665006 9.44813 0.0155168 6.98096C0.0166252 6.51767 0.54863 6.25832 0.911058 6.54648C3.54448 8.63571 8.25383 12.4451 8.31258 12.495C9.0995 13.1256 10.097 13.4814 11.1167 13.4814C12.1364 13.4814 13.1339 13.1256 13.9208 12.4828C13.9795 12.444 18.5836 8.74876 21.2569 6.62518C21.6205 6.3359 22.1547 6.59525 22.1558 7.05743C22.1669 9.50576 22.1669 14.3426 22.1669 14.3426" fill="white"/>
<path d="M21.5852 2.96371C20.6254 1.15489 18.7367 0 16.6575 0H5.59623C3.51697 0 1.62836 1.15489 0.668532 2.96371C0.453514 3.36826 0.555481 3.87255 0.913476 4.1585L9.14293 10.741C9.71926 11.2065 10.4175 11.4381 11.1158 11.4381C11.1202 11.4381 11.1235 11.4381 11.1269 11.4381C11.1302 11.4381 11.1346 11.4381 11.1379 11.4381C11.8362 11.4381 12.5345 11.2065 13.1108 10.741L21.3402 4.1585C21.6982 3.87255 21.8002 3.36826 21.5852 2.96371" fill="white"/>
</svg>
