<?xml version="1.0" encoding="utf-8"?>
<!-- Generator: Adobe Illustrator 25.2.3, SVG Export Plug-In . SVG Version: 6.00 Build 0)  -->
<svg version="1.1" id="Logo" xmlns="http://www.w3.org/2000/svg" xmlns:xlink="http://www.w3.org/1999/xlink" x="0px" y="0px"
	 viewBox="0 0 305 85" style="enable-background:new 0 0 305 85;" xml:space="preserve">
<style type="text/css">
	.st0{fill:#F77536;}
	.st1{fill:#FFFFFF;}
</style>
<path id="Dot" class="st0" d="M239.7,23.4c0,3.8-3.1,6.8-6.8,6.8s-6.8-3-6.8-6.8s3.1-6.8,6.8-6.8C236.6,16.6,239.7,19.6,239.7,23.4z
	"/>
<g id="File">
	<rect x="247.6" y="17.7" class="st1" width="8.6" height="65.1"/>
	<rect x="228.6" y="39.8" class="st1" width="8.6" height="43"/>
	<path class="st1" d="M210.2,82.8h-8.6V47.3h-5.5v-7.4h5.5v-3.9c0-3.7,0.1-6.4,0.4-8.1c0.3-1.7,0.8-3.1,1.6-4.4c1.2-2,2.9-3.6,5-4.7
		c2.1-1.1,4.5-1.7,7.1-1.7c0.8,0,1.8,0.1,2.8,0.2c1,0.1,2.3,0.4,3.9,0.8v7.5c-1.2-0.2-2.2-0.4-3.1-0.5c-0.9-0.1-1.6-0.2-2.2-0.2
		c-2.5,0-4.3,0.7-5.4,2.2c-1.1,1.4-1.6,4-1.6,7.6v5.2h5.6v7.4h-5.6L210.2,82.8L210.2,82.8z"/>
	<path class="st1" d="M303.3,78.2c-2.9,1.8-5.8,3.2-8.8,4.1c-3,0.9-6.1,1.4-9.4,1.4c-6.8,0-12.2-2.1-16.3-6.3
		c-4-4.2-6.1-9.8-6.1-16.8c0-6.4,2-11.6,5.8-15.6c3.9-4,9-6,15.2-6c6.2,0,11.1,2,14.8,6.1c3.6,4.1,5.4,9.5,5.4,16.5v1.3h-32.2
		c0.3,4.1,1.6,7.2,4,9.5c2.4,2.3,5.7,3.4,9.7,3.4c2.7,0,5.6-0.5,8.5-1.5c3-1,6-2.5,9.2-4.6L303.3,78.2L303.3,78.2z M271.8,56.7h22.8
		c-0.3-3.1-1.4-5.6-3.4-7.5c-2-1.9-4.5-2.8-7.5-2.8c-3.3,0-5.9,0.9-8,2.6C273.8,50.7,272.4,53.3,271.8,56.7z"/>
</g>
<g id="News">
	<path class="st1" d="M142.3,83.4H138l-12.9-26.2l-12.5,26.2h-4.3L88.9,41.2h10.9l11.1,25.1l12-25.1h4.6l12,25.1l11-25.1h10.9
		L142.3,83.4z"/>
	<path class="st1" d="M162.3,79.9v-9.2c2.6,1.7,5.1,3,7.4,3.9c2.4,0.9,4.6,1.3,6.6,1.3c2.2,0,3.9-0.4,5.2-1.2
		c1.2-0.8,1.9-1.9,1.9-3.4c0-1.8-2.3-3.9-7-6.2c-1.4-0.7-2.4-1.2-3.2-1.6c-4-2-6.8-4-8.2-5.9c-1.5-1.9-2.2-4.2-2.2-7
		c0-3.6,1.3-6.5,3.9-8.6c2.6-2.1,6.1-3.2,10.6-3.2c2.4,0,4.8,0.3,7,0.9c2.2,0.6,4.4,1.5,6.6,2.7v8.4c-2.6-1.5-5.1-2.5-7.2-3.2
		c-2.2-0.7-4.3-1-6.2-1c-1.8,0-3.2,0.3-4.2,0.9c-1,0.6-1.5,1.5-1.5,2.7c0,2.2,3,4.7,9,7.7l0.8,0.4c4.7,2.4,7.7,4.4,9.2,6.2
		c1.4,1.8,2.1,4,2.1,6.8c0,3.8-1.4,6.8-4.2,9.1c-2.8,2.3-6.6,3.4-11.3,3.4c-2.7,0-5.3-0.3-7.7-0.9C167.1,82.1,164.7,81.2,162.3,79.9
		"/>
	<path class="st1" d="M1,82.8v-43h8.6v5.2c2.1-2,4.3-3.5,6.4-4.5c2.1-0.9,4.4-1.4,6.9-1.4c4.6,0,8.3,1.3,11,4c2.7,2.7,4,6.4,4,11.1
		v28.5h-8.6V56.5c0-3.5-0.7-6-2.2-7.7c-1.5-1.7-3.8-2.5-6.9-2.5c-2.2,0-4.1,0.4-5.8,1.3c-1.6,0.8-3.3,2.2-4.9,4.2v31L1,82.8L1,82.8z
		"/>
	<path class="st1" d="M88.2,68.9c-4.3,1.9-32.1,14.3-33.4-6.1H87v-1.3c0-6.9-1.8-12.4-5.4-16.5C77.9,41,73,39,66.8,39
		c-6.2,0-11.3,2-15.2,6s-5.8,9.2-5.8,15.6c0,7,2,12.6,6.1,16.8c8.7,9.1,21,7.7,31.8,3.4c0,0,8.4-3.7,8.4-3.7c3.2-1.7,6-3.3,8.8-5
		L97.1,64C94.2,65.8,91.2,67.4,88.2,68.9z M58.7,49c2-1.8,4.7-2.6,7.9-2.6c3,0,5.5,1,7.4,2.8c2,1.9,3.1,4.4,3.4,7.5H54.8
		C55.4,53.3,56.7,50.7,58.7,49z M111.4,61.2l4.9-10.3c-2.5,1.9-4.9,3.6-7.2,5.2L111.4,61.2z M141.1,31.9c-4.1,3.1-7.8,6-11.2,8.6
		l0,0l3.8,8c2.8-2.2,5.9-4.6,9.3-7.2c55.5-43.2,93-37.1,98.9-20.4C235.2,0.9,193-8,141.1,31.9z"/>
</g>
</svg>
